Coordinates
version=1
nRows=36
nColumns=34
inDegrees=no

Units are S.I. units (second, meters, Newtons, ...)
If the header above contains a line with 'inDegrees', this indicates whether rotational values are in degrees (yes) or radians (no).

endheader
time	pelvis_tilt	pelvis_list	pelvis_rotation	pelvis_tx	pelvis_ty	pelvis_tz	hip_flexion_r	hip_adduction_r	hip_rotation_r	knee_angle_r	ankle_angle_r	subtalar_angle_r	mtp_angle_r	hip_flexion_l	hip_adduction_l	hip_rotation_l	knee_angle_l	ankle_angle_l	subtalar_angle_l	mtp_angle_l	lumbar_extension	lumbar_bending	lumbar_rotation	arm_flex_r	arm_add_r	arm_rot_r	elbow_flex_r	pro_sup_r	arm_flex_l	arm_add_l	arm_rot_l	elbow_flex_l	pro_sup_l
0.67	-0.252721	0.00433998	0.0104389	-1.14063	1.24758	-0.580974	0.410942	-0.0495171	-0.108996	0.431509	0.450004	0.218929	0	0.416562	-0.0206913	-0.00293032	0.424632	0.402247	0.121662	0	-0.121285	0.0145265	-0.0592108	0.0528214	-0.182935	0.0804458	0.630431	2.09	0.0154241	-0.141169	-0.0661061	0.414589	2.09
0.68	-0.261618	0.00340533	0.0121029	-1.14007	1.24534	-0.581118	0.429402	-0.0492571	-0.106022	0.45005	0.455435	0.211865	0	0.43604	-0.0204499	0.000558028	0.444497	0.410072	0.118885	0	-0.123445	0.0171199	-0.0614981	0.0633444	-0.183615	0.0823777	0.632384	2.09	0.0305627	-0.139106	-0.0662254	0.412111	2.09
0.69	-0.268723	0.00242171	0.0138162	-1.13929	1.24305	-0.581012	0.445767	-0.0480261	-0.100942	0.468629	0.460421	0.2007	0	0.453509	-0.0214554	0.000367784	0.464678	0.419717	0.120869	0	-0.127377	0.0194279	-0.0635139	0.0750198	-0.183341	0.0842637	0.634495	2.09	0.0462985	-0.138764	-0.0603125	0.412029	2.09
0.7	-0.274843	0.00124557	0.0153431	-1.13842	1.24067	-0.580857	0.461135	-0.046482	-0.0958131	0.487618	0.465954	0.189085	0	0.469983	-0.0232113	-0.00174772	0.48536	0.430661	0.124802	0	-0.132348	0.0217753	-0.0650374	0.0879987	-0.184461	0.0908338	0.637459	2.09	0.0632659	-0.13967	-0.048006	0.41369	2.09
0.71	-0.281441	-0.000259957	0.0170333	-1.13762	1.23803	-0.580831	0.477605	-0.0452772	-0.0923708	0.507785	0.472409	0.17946	0	0.487719	-0.0246952	-0.00206909	0.507397	0.441935	0.126027	0	-0.137044	0.0246351	-0.0664123	0.102531	-0.18692	0.0999563	0.641377	2.09	0.0824644	-0.140465	-0.0321198	0.41562	2.09
0.72	-0.287564	-0.000791925	0.0179617	-1.13682	1.23516	-0.580742	0.494539	-0.0448511	-0.0883891	0.529669	0.480017	0.170743	0	0.505129	-0.0252964	-0.00181656	0.530197	0.453377	0.124822	0	-0.142477	0.0264662	-0.0673604	0.119335	-0.188274	0.107036	0.645382	2.09	0.104167	-0.140704	-0.0165223	0.417278	2.09
0.73	-0.291611	0.000709001	0.0170328	-1.13586	1.23222	-0.580404	0.509906	-0.0452649	-0.0817345	0.552795	0.489255	0.161652	0	0.519435	-0.025499	-0.00505707	0.552446	0.465594	0.125172	0	-0.150081	0.0256579	-0.067002	0.138641	-0.188057	0.113128	0.649044	2.09	0.128409	-0.141005	-0.00142057	0.4187	2.09
0.74	-0.29441	0.00250933	0.0164498	-1.13482	1.22923	-0.580103	0.523419	-0.0461628	-0.0756543	0.57554	0.499771	0.152386	0	0.532218	-0.0260232	-0.0100829	0.574569	0.478635	0.128181	0	-0.158824	0.024324	-0.0666538	0.160025	-0.187983	0.120866	0.652913	2.09	0.155547	-0.141277	0.0147253	0.419595	2.09
0.75	-0.297974	0.00265593	0.0187998	-1.13388	1.22605	-0.580155	0.536807	-0.0474811	-0.0740738	0.597369	0.510747	0.143784	0	0.546985	-0.026629	-0.011987	0.597865	0.491628	0.130812	0	-0.166691	0.0252625	-0.0686471	0.183528	-0.188424	0.128919	0.657295	2.09	0.185176	-0.140785	0.0306941	0.420651	2.09
0.76	-0.302566	0.00215335	0.021862	-1.13299	1.22263	-0.580303	0.551366	-0.0491133	-0.0746595	0.619507	0.522084	0.136117	0	0.563473	-0.0269931	-0.011563	0.622014	0.503993	0.130398	0	-0.173342	0.0271074	-0.0717469	0.209443	-0.188353	0.136349	0.661924	2.09	0.216003	-0.139645	0.0441364	0.423677	2.09
0.77	-0.307006	0.0023354	0.0221335	-1.13193	1.21906	-0.580127	0.566306	-0.0498651	-0.0727344	0.64218	0.533669	0.128129	0	0.579154	-0.0281046	-0.0128812	0.646012	0.516002	0.127556	0	-0.179796	0.0276154	-0.0728296	0.237594	-0.18763	0.145142	0.666899	2.09	0.247815	-0.138406	0.0548471	0.428995	2.09
0.78	-0.310772	0.00235577	0.0205323	-1.13067	1.21543	-0.579749	0.580221	-0.0489038	-0.0682754	0.664232	0.544829	0.118227	0	0.593651	-0.0306895	-0.0157071	0.66998	0.527915	0.124176	0	-0.186507	0.0279047	-0.0722923	0.267936	-0.186904	0.156322	0.672505	2.09	0.281342	-0.137227	0.0653372	0.435811	2.09
0.79	-0.314312	0.00158305	0.0197493	-1.12929	1.2117	-0.579537	0.593277	-0.0474829	-0.0640435	0.68591	0.555507	0.106844	0	0.608025	-0.0335219	-0.0171164	0.694255	0.539633	0.120195	0	-0.192944	0.0294043	-0.0726388	0.300681	-0.186197	0.168557	0.678476	2.09	0.316472	-0.136007	0.0774584	0.444548	2.09
0.8	-0.317765	0.00125401	0.0197402	-1.12777	1.20785	-0.579465	0.606373	-0.0472001	-0.060341	0.708611	0.566453	0.0954153	0	0.622004	-0.0350953	-0.0170031	0.71828	0.551212	0.114205	0	-0.198927	0.030733	-0.073881	0.335543	-0.18492	0.180189	0.684808	2.09	0.352843	-0.134727	0.0897475	0.455724	2.09
0.81	-0.320906	0.00238907	0.0192591	-1.1261	1.20393	-0.579324	0.619588	-0.0481917	-0.0559532	0.732417	0.57793	0.0842634	0	0.634713	-0.0352626	-0.0169762	0.741349	0.562605	0.105884	0	-0.204771	0.0302864	-0.0747535	0.372035	-0.183138	0.191414	0.692128	2.09	0.390696	-0.13374	0.101201	0.468781	2.09
0.82	-0.323999	0.0043618	0.0186497	-1.12428	1.19998	-0.579218	0.632513	-0.049887	-0.0510985	0.756016	0.58945	0.0730338	0	0.646623	-0.0341713	-0.0162807	0.763616	0.572958	0.0953031	0	-0.210025	0.028802	-0.0758296	0.410236	-0.181366	0.203546	0.700164	2.09	0.429895	-0.133031	0.112615	0.483568	2.09
0.83	-0.327395	0.00596786	0.0186319	-1.12227	1.19602	-0.579314	0.644781	-0.051505	-0.0464846	0.77835	0.600295	0.0614267	0	0.658828	-0.0322588	-0.0135919	0.786005	0.581298	0.082594	0	-0.214093	0.0279597	-0.0778019	0.450273	-0.179225	0.215304	0.708033	2.09	0.470003	-0.131806	0.123054	0.500396	2.09
0.84	-0.331057	0.00664431	0.0183184	-1.12006	1.19206	-0.579404	0.65621	-0.0517532	-0.0416571	0.799079	0.609975	0.0490572	0	0.671679	-0.0314991	-0.0107784	0.809291	0.58781	0.0695499	0	-0.217167	0.0281586	-0.079043	0.491456	-0.176149	0.223742	0.71619	2.09	0.511188	-0.129953	0.131433	0.518653	2.09
0.85	-0.334943	0.00636384	0.0164126	-1.11764	1.18815	-0.579194	0.666993	-0.049663	-0.0360379	0.81838	0.618827	0.0358568	0	0.684911	-0.0336871	-0.0100292	0.833431	0.59332	0.057487	0	-0.219329	0.0287705	-0.0776454	0.53289	-0.172931	0.229451	0.725742	2.09	0.553795	-0.127958	0.138402	0.537012	2.09
0.86	-0.33873	0.00547101	0.0134709	-1.11496	1.1843	-0.578797	0.676982	-0.0460804	-0.0300337	0.836843	0.627681	0.0222559	0	0.697724	-0.0375178	-0.0100383	0.857721	0.597829	0.0445533	0	-0.220609	0.0293845	-0.0745936	0.574607	-0.170568	0.23594	0.736879	2.09	0.597381	-0.125973	0.144825	0.555744	2.09
0.87	-0.341915	0.00461149	0.0110836	-1.11198	1.18058	-0.578554	0.685462	-0.042796	-0.0241635	0.854653	0.636561	0.00866368	0	0.709341	-0.040341	-0.00873166	0.881558	0.600634	0.029061	0	-0.221455	0.0300593	-0.0725122	0.61717	-0.168614	0.244459	0.749369	2.09	0.640806	-0.12475	0.15174	0.577198	2.09
0.88	-0.344878	0.00378366	0.00925991	-1.10865	1.17701	-0.578499	0.692331	-0.039471	-0.0178283	0.870879	0.64416	-0.00589559	0	0.720241	-0.0423981	-0.00635471	0.905016	0.601112	0.0121216	0	-0.221579	0.0311998	-0.071575	0.660518	-0.166437	0.2531	0.762858	2.09	0.683922	-0.124307	0.157095	0.601027	2.09
0.89	-0.347912	0.00246041	0.0068055	-1.10498	1.17366	-0.578377	0.697765	-0.0353019	-0.0119479	0.884966	0.651612	-0.0180962	0	0.730545	-0.0461392	-0.00467986	0.928113	0.601256	-0.00149374	0	-0.220636	0.0328414	-0.0694513	0.703846	-0.164677	0.259374	0.777023	2.09	0.728449	-0.122726	0.157432	0.622312	2.09
0.9	-0.35102	0.000866786	0.00359713	-1.10101	1.17049	-0.578101	0.702653	-0.0305734	-0.00665184	0.898139	0.657882	-0.0299926	0	0.74	-0.0510461	-0.00328501	0.950337	0.600591	-0.0146285	0	-0.218524	0.0343088	-0.0659216	0.747012	-0.164067	0.265109	0.791563	2.09	0.774183	-0.120279	0.15457	0.640868	2.09
0.91	-0.353804	-0.000149401	0.000698906	-1.09663	1.16749	-0.577851	0.706813	-0.0276987	-0.00344158	0.911403	0.664099	-0.0391651	0	0.747852	-0.0548351	-0.00156748	0.970996	0.598978	-0.028552	0	-0.215548	0.0349915	-0.0629082	0.789918	-0.164483	0.273031	0.807193	2.09	0.818848	-0.120282	0.156419	0.661645	2.09
0.92	-0.356463	-0.000494988	-0.00162934	-1.09179	1.16466	-0.577743	0.70963	-0.0264086	-0.00124102	0.923761	0.67043	-0.0459881	0	0.754197	-0.057329	-0.000744777	0.989771	0.595425	-0.0434408	0	-0.211376	0.0350625	-0.0611784	0.832554	-0.164937	0.282027	0.823227	2.09	0.861347	-0.124087	0.164567	0.686513	2.09
0.93	-0.359247	-0.000315117	-0.00415782	-1.0865	1.16214	-0.577649	0.710847	-0.0246237	0.00269304	0.93398	0.676009	-0.053388	0	0.758955	-0.0600381	-0.00271334	1.00621	0.590669	-0.0583966	0	-0.205616	0.0344196	-0.0597185	0.874911	-0.164471	0.288304	0.83771	2.09	0.902758	-0.130387	0.175815	0.712069	2.09
0.94	-0.36225	0.000434186	-0.00702756	-1.08072	1.15995	-0.577472	0.710856	-0.0224371	0.00794562	0.942285	0.680353	-0.0617334	0	0.761915	-0.0627904	-0.00555726	1.02011	0.586382	-0.0724343	0	-0.197874	0.0329689	-0.057803	0.91605	-0.164424	0.293056	0.851856	2.09	0.943499	-0.137907	0.188824	0.735731	2.09
0.95	-0.365461	0.00133938	-0.00949196	-1.07438	1.15808	-0.577351	0.709681	-0.0214697	0.0112052	0.94903	0.684107	-0.0677796	0	0.763231	-0.0644185	-0.00603223	1.03177	0.582319	-0.0845719	0	-0.188009	0.0315192	-0.0556994	0.954546	-0.167594	0.301027	0.869684	2.09	0.982735	-0.146101	0.203017	0.758085	2.09
0.96	-0.368555	0.00181109	-0.0116892	-1.06751	1.15662	-0.577372	0.706365	-0.021032	0.0125398	0.953149	0.687588	-0.0703105	0	0.762585	-0.0656999	-0.00581101	1.04111	0.577443	-0.0942377	0	-0.176729	0.0308245	-0.0534792	0.99043	-0.174182	0.312222	0.891773	2.09	1.01991	-0.154891	0.216723	0.780349	2.09
0.97	-0.371101	0.00180014	-0.0146036	-1.06012	1.15577	-0.577385	0.699949	-0.0190025	0.0149883	0.953284	0.690087	-0.0716654	0	0.75904	-0.0682913	-0.00823659	1.04732	0.572309	-0.100718	0	-0.164717	0.0307903	-0.0505418	1.02446	-0.182236	0.32349	0.915362	2.09	1.05483	-0.163856	0.227898	0.802076	2.09
0.98	-0.373312	0.00163319	-0.0178579	-1.05212	1.15555	-0.57733	0.690711	-0.0159249	0.0182374	0.949663	0.69087	-0.073086	0	0.75242	-0.071571	-0.0121811	1.04975	0.567591	-0.103114	0	-0.151254	0.0311315	-0.0471994	1.05603	-0.191139	0.334541	0.93962	2.09	1.08653	-0.172985	0.237171	0.82299	2.09
0.99	-0.375792	0.00155357	-0.0201199	-1.04339	1.15596	-0.577382	0.679564	-0.0144371	0.018873	0.943388	0.689545	-0.0723299	0	0.743267	-0.07377	-0.0153525	1.04805	0.562912	-0.10144	0	-0.135219	0.0318171	-0.0446601	1.08403	-0.201624	0.346339	0.96564	2.09	1.11377	-0.183664	0.247677	0.844588	2.09
1	-0.378196	0.00155713	-0.0215295	-1.03394	1.1571	-0.57761	0.66626	-0.0151563	0.0159469	0.934526	0.685241	-0.0675651	0	0.730918	-0.0750244	-0.018841	1.04153	0.55834	-0.0957861	0	-0.117231	0.0328053	-0.0427071	1.10827	-0.214112	0.358201	0.99379	2.09	1.13668	-0.195717	0.258718	0.866678	2.09
1.01	-0.379257	0.00165738	-0.0231651	-1.02378	1.15917	-0.57786	0.649387	-0.0159814	0.0127365	0.922291	0.676161	-0.0618142	0	0.713403	-0.0763151	-0.0244806	1.02925	0.554343	-0.0853899	0	-0.0990547	0.0337221	-0.0402116	1.12871	-0.228271	0.368774	1.02381	2.09	1.15604	-0.206693	0.266259	0.886758	2.09
1.02	-0.378191	0.00226888	-0.0251059	-1.01284	1.16225	-0.578047	0.628278	-0.0158318	0.0122607	0.906842	0.660994	-0.0584121	0	0.68941	-0.0772502	-0.0324365	1.01049	0.550422	-0.069782	0	-0.0815152	0.033883	-0.0373411	1.14492	-0.243522	0.377656	1.05535	2.09	1.17169	-0.216313	0.270493	0.90442	2.09
